<svg width="12" height="14" viewBox="0 0 12 14" fill="none" xmlns="http://www.w3.org/2000/svg">
<path fill-rule="evenodd" clip-rule="evenodd" d="M4.00063 8.90134V13.0335C4.00063 13.4801 4.36911 13.7805 4.69921 13.6031L7.12549 12.2991C7.67153 12.0042 8.00026 11.3379 8.00026 10.5925V8.90136L11.6866 2.99683C12.4457 1.76806 11.7393 0 10.494 0H1.50636C0.260942 0 -0.445507 1.76849 0.312965 2.99412L4.00063 8.90134ZM5.00052 8.68911C5.00052 8.55147 4.96366 8.41773 4.89574 8.30893L1.10459 2.23594C0.853531 1.83024 1.08876 1.24139 1.50634 1.24139H10.494C10.9116 1.24139 11.147 1.83059 10.8947 2.23905L7.10512 8.30891C7.0372 8.41771 7.00033 8.55145 7.00033 8.68911V10.5926C7.00033 10.8581 6.89609 11.0694 6.7274 11.1605L5.00052 12.0886V8.68911Z" fill="#F7EDFF"/>
</svg>
