<svg width="140" height="30" viewBox="0 0 140 30" fill="none" xmlns="http://www.w3.org/2000/svg">
<path fill-rule="evenodd" clip-rule="evenodd" d="M133.697 0.0434783C134.133 -0.0889356 134.605 0.0887422 134.836 0.472472C135.574 1.70203 137.206 4.55501 136.008 7.55999C134.81 10.5643 131.527 11.8479 130.129 12.2728C129.693 12.4059 129.221 12.2276 128.991 11.8445C128.252 10.6143 126.63 7.66336 127.828 4.65837C129.026 1.65406 132.299 0.469094 133.697 0.0434783ZM139.925 16.6838C140.089 17.0365 139.977 17.4527 139.655 17.6803C138.719 18.3431 136.613 19.5348 134.215 18.92C131.817 18.3059 130.588 16.2596 130.111 15.2354C129.946 14.8828 130.059 14.4673 130.381 14.2389C131.316 13.5762 133.423 12.3851 135.82 12.9992C138.219 13.6133 139.448 15.6597 139.925 16.6838Z" fill="#45D0C1"/>
<path fill-rule="evenodd" clip-rule="evenodd" d="M16.4618 3.82115L16.1841 3.12035C15.9238 2.35731 15.4677 2.04547 14.4014 2.04547H11.7785C10.7571 2.04547 10.1743 2.46825 9.85947 3.32802L8.75616 6.17586C10.7851 4.6268 13.2967 3.78868 15.8818 3.79815C16.0504 3.79815 16.2057 3.8069 16.3479 3.81492C16.3868 3.81711 16.4248 3.81926 16.4618 3.82115ZM69.575 18.5134C69.575 21.8679 72.3875 24.5872 75.8569 24.5872V24.5811C79.3235 24.5811 82.136 21.8659 82.1388 18.5134C82.1388 15.1589 79.3263 12.4396 75.8569 12.4396C72.3875 12.4396 69.575 15.1589 69.575 18.5134ZM64.015 18.5073C64.015 12.1846 69.3168 7.05843 75.8569 7.05843C82.3963 7.05978 87.6967 12.1852 87.6988 18.5073C87.6988 24.8308 82.397 29.9569 75.8569 29.9569C69.3168 29.9569 64.015 24.8308 64.015 18.5073ZM27.6114 28.7708V8.25615C27.6114 8.03156 27.7996 7.85028 28.0319 7.85028H32.4612C32.6928 7.85028 32.881 8.03156 32.881 8.25615V10.7421C32.881 10.7421 34.6189 6.94451 39.7821 7.56076C40.0361 7.59052 40.2264 7.79887 40.2264 8.04577V12.1883C40.2271 12.4434 40.0214 12.6551 39.7576 12.6706C38.3255 12.7464 37.5433 13.065 36.3015 13.6258C34.9995 14.1818 33.95 15.1749 33.3463 16.4216V28.762C33.3463 29.1895 32.988 29.5359 32.5459 29.5359H28.4125C27.9745 29.5345 27.6177 29.1942 27.6114 28.7708ZM89.557 28.7708V8.32041C89.5514 8.06539 89.7613 7.85501 90.025 7.85028H90.0376H94.3494C94.6132 7.85028 94.8259 8.05659 94.8259 8.31161V10.7421C94.8259 10.7421 96.5672 6.94451 101.73 7.56076C101.984 7.59052 102.175 7.79887 102.175 8.04577V12.1883C102.175 12.4434 101.97 12.6551 101.707 12.6706C100.277 12.7464 99.4916 13.065 98.2498 13.6258C96.9485 14.1839 95.8991 15.1762 95.2946 16.4216V28.762C95.2946 29.1895 94.9357 29.5359 94.4942 29.5359H90.3601C89.9215 29.5359 89.5633 29.1949 89.557 28.7708ZM120.818 20.3218C120.549 20.3238 120.309 20.4855 120.214 20.7284C118.951 23.8529 115.308 25.3959 112.077 24.1762C111.067 23.794 110.175 23.1663 109.49 22.3518L120.633 18.3439L125.241 16.5912C125.682 16.4295 125.921 15.9682 125.791 15.5305C124.068 9.431 117.557 5.83636 111.248 7.50312C104.939 9.16922 101.222 15.4649 102.945 21.5645C104.669 27.6647 111.181 31.2586 117.489 29.5925C121.839 28.4433 125.137 25.0055 125.994 20.725C126.03 20.5342 125.901 20.3516 125.704 20.3164C125.683 20.3123 125.662 20.3103 125.641 20.3103L120.818 20.3218ZM114.361 12.4338C116.367 12.4344 118.252 13.3625 119.431 14.9319L108.103 19.0041C108.103 18.9233 108.097 18.8422 108.091 18.7604C108.085 18.677 108.079 18.5929 108.079 18.5076C108.079 15.1531 110.892 12.4338 114.361 12.4338ZM57.4731 11.9521C58.4806 9.96533 60.3535 8.51773 62.5804 8.00769C63.3654 7.82505 64.1783 7.78446 64.9794 7.88795L56.8756 28.8876C56.7357 29.257 56.3754 29.5045 55.9689 29.5099H55.857C55.7772 29.5309 55.6947 29.5417 55.6121 29.5417H50.8197C50.4146 29.5357 50.0557 29.2894 49.9137 28.9228L41.8393 7.92584C42.5284 7.83384 43.2273 7.85075 43.9095 7.97589C46.3274 8.41829 48.3759 9.95924 49.4155 12.1151C49.603 12.4878 49.7653 12.8707 49.9018 13.2637L53.4034 23.1642L56.9176 13.2312C57.0694 12.7922 57.2555 12.364 57.4731 11.9521ZM13.0318 10.0278L9.69037 18.8338H16.1325L13.0318 10.0278ZM15.8821 5.48338C16.2431 5.47933 16.6048 5.50232 16.9637 5.55103L25.9888 28.6558C26.0147 28.7255 26.0287 28.7992 26.0294 28.8736C26.0315 29.2369 25.7314 29.5331 25.3578 29.5359H20.2687C19.9861 29.5372 19.7328 29.3661 19.6341 29.1077L17.1386 22.6232H8.75637L6.31538 29.0901C6.21743 29.3485 5.96417 29.521 5.68082 29.5217H0.670799C0.596639 29.5203 0.523178 29.5074 0.453915 29.4838C0.0999047 29.362 -0.0861957 28.9846 0.0390373 28.6409L6.63581 11.9441C6.72046 11.7304 6.81071 11.5247 6.90446 11.3252C6.91811 11.2944 6.93245 11.265 6.94679 11.2356C6.96113 11.2061 6.97547 11.1767 6.98912 11.1459C7.05838 11.0052 7.12834 10.8639 7.2004 10.7292C9.66309 6.07054 13.8965 5.48338 15.8821 5.48338Z" fill="#45D0C1"/>
</svg>
